<svg width="388" height="59" viewBox="0 0 388 59" fill="none" xmlns="http://www.w3.org/2000/svg">
<rect x="51.1746" y="27.8335" width="32.3627" height="16.9141" rx="4" transform="rotate(125.882 51.1746 27.8335)" fill="white"/>
<rect x="36.0999" y="16.9286" width="32.0775" height="16.9141" rx="4" transform="rotate(125.882 36.0999 16.9286)" fill="white"/>
<path d="M91.8411 16.728H80.9451V45H74.3691V16.728H63.4731V10.92H91.8411V16.728ZM101.628 45.48C99.6115 45.48 97.7875 45.144 96.1555 44.472C94.5235 43.768 93.1315 42.824 91.9795 41.64C90.8275 40.456 89.9315 39.08 89.2915 37.512C88.6835 35.944 88.3795 34.296 88.3795 32.568C88.3795 30.776 88.6835 29.096 89.2915 27.528C89.8995 25.928 90.7795 24.536 91.9315 23.352C93.0835 22.136 94.4755 21.176 96.1075 20.472C97.7715 19.768 99.6275 19.416 101.676 19.416C103.724 19.416 105.548 19.768 107.148 20.472C108.78 21.176 110.156 22.12 111.276 23.304C112.428 24.488 113.292 25.864 113.868 27.432C114.476 29 114.78 30.632 114.78 32.328C114.78 32.744 114.764 33.144 114.732 33.528C114.732 33.912 114.7 34.232 114.636 34.488H95.1955C95.2915 35.48 95.5315 36.36 95.9155 37.128C96.2995 37.896 96.7955 38.552 97.4035 39.096C98.0115 39.64 98.6995 40.056 99.4675 40.344C100.236 40.632 101.036 40.776 101.868 40.776C103.148 40.776 104.348 40.472 105.468 39.864C106.62 39.224 107.404 38.392 107.82 37.368L113.34 38.904C112.412 40.824 110.924 42.408 108.876 43.656C106.86 44.872 104.444 45.48 101.628 45.48ZM108.156 30.312C107.996 28.424 107.292 26.92 106.044 25.8C104.828 24.648 103.34 24.072 101.58 24.072C100.716 24.072 99.8995 24.232 99.1315 24.552C98.3955 24.84 97.7395 25.256 97.1635 25.8C96.5875 26.344 96.1075 27 95.7235 27.768C95.3715 28.536 95.1635 29.384 95.0995 30.312H108.156ZM117.114 32.424C117.114 30.664 117.418 29 118.026 27.432C118.634 25.864 119.514 24.488 120.666 23.304C121.818 22.12 123.21 21.176 124.842 20.472C126.474 19.768 128.314 19.416 130.362 19.416C133.114 19.416 135.45 20.008 137.37 21.192C139.322 22.376 140.778 23.928 141.738 25.848L135.45 27.768C134.906 26.84 134.186 26.136 133.29 25.656C132.394 25.144 131.402 24.888 130.314 24.888C129.386 24.888 128.522 25.08 127.722 25.464C126.922 25.816 126.218 26.328 125.61 27C125.034 27.64 124.57 28.424 124.218 29.352C123.898 30.28 123.738 31.304 123.738 32.424C123.738 33.544 123.914 34.568 124.266 35.496C124.618 36.424 125.082 37.224 125.658 37.896C126.266 38.568 126.97 39.096 127.77 39.48C128.57 39.832 129.418 40.008 130.314 40.008C131.466 40.008 132.522 39.72 133.482 39.144C134.474 38.568 135.162 37.864 135.546 37.032L141.834 38.952C140.97 40.872 139.546 42.44 137.562 43.656C135.578 44.872 133.194 45.48 130.41 45.48C128.362 45.48 126.522 45.128 124.89 44.424C123.258 43.72 121.866 42.776 120.714 41.592C119.562 40.376 118.666 38.984 118.026 37.416C117.418 35.816 117.114 34.152 117.114 32.424ZM169.168 45H162.736V30.888C162.736 28.904 162.368 27.448 161.632 26.52C160.896 25.56 159.856 25.08 158.512 25.08C157.936 25.08 157.328 25.208 156.688 25.464C156.048 25.72 155.44 26.088 154.864 26.568C154.288 27.016 153.76 27.56 153.28 28.2C152.8 28.84 152.448 29.544 152.224 30.312V45H145.792V9.96H152.224V24.504C153.152 22.872 154.4 21.624 155.968 20.76C157.568 19.864 159.328 19.416 161.248 19.416C162.88 19.416 164.208 19.704 165.232 20.28C166.256 20.824 167.056 21.56 167.632 22.488C168.208 23.416 168.608 24.472 168.832 25.656C169.056 26.84 169.168 28.056 169.168 29.304V45ZM183.875 38.04C184.323 38.36 185.075 38.712 186.131 39.096C187.187 39.48 188.403 39.672 189.779 39.672C191.123 39.672 192.195 39.448 192.995 39C193.795 38.52 194.403 37.8 194.819 36.84C195.235 35.88 195.507 34.696 195.635 33.288C195.763 31.848 195.827 30.168 195.827 28.248V10.92H202.451V28.248C202.451 30.84 202.307 33.208 202.019 35.352C201.763 37.464 201.187 39.272 200.291 40.776C199.427 42.28 198.163 43.448 196.499 44.28C194.835 45.112 192.595 45.528 189.779 45.528C186.899 45.528 184.435 44.824 182.387 43.416L183.875 38.04ZM219.798 45.48C217.75 45.48 215.91 45.128 214.278 44.424C212.646 43.72 211.254 42.776 210.102 41.592C208.982 40.376 208.118 38.984 207.51 37.416C206.902 35.848 206.598 34.2 206.598 32.472C206.598 30.712 206.902 29.048 207.51 27.48C208.118 25.912 208.982 24.536 210.102 23.352C211.254 22.136 212.646 21.176 214.278 20.472C215.91 19.768 217.75 19.416 219.798 19.416C221.846 19.416 223.67 19.768 225.27 20.472C226.902 21.176 228.278 22.136 229.398 23.352C230.55 24.536 231.43 25.912 232.038 27.48C232.646 29.048 232.95 30.712 232.95 32.472C232.95 34.2 232.646 35.848 232.038 37.416C231.43 38.984 230.566 40.376 229.446 41.592C228.326 42.776 226.95 43.72 225.318 44.424C223.686 45.128 221.846 45.48 219.798 45.48ZM213.222 32.472C213.222 33.592 213.382 34.616 213.702 35.544C214.054 36.44 214.518 37.224 215.094 37.896C215.702 38.568 216.406 39.096 217.206 39.48C218.006 39.832 218.87 40.008 219.798 40.008C220.726 40.008 221.59 39.832 222.39 39.48C223.19 39.096 223.878 38.568 224.454 37.896C225.062 37.224 225.526 36.424 225.846 35.496C226.198 34.568 226.374 33.544 226.374 32.424C226.374 31.336 226.198 30.328 225.846 29.4C225.526 28.472 225.062 27.672 224.454 27C223.878 26.328 223.19 25.816 222.39 25.464C221.59 25.08 220.726 24.888 219.798 24.888C218.87 24.888 218.006 25.08 217.206 25.464C216.406 25.848 215.702 26.376 215.094 27.048C214.518 27.72 214.054 28.52 213.702 29.448C213.382 30.376 213.222 31.384 213.222 32.472ZM251.596 45.48C249.676 45.48 247.964 45.048 246.46 44.184C244.956 43.32 243.772 42.136 242.908 40.632V45H237.292V9.96H243.724V24.264C244.62 22.728 245.788 21.544 247.228 20.712C248.7 19.848 250.412 19.416 252.364 19.416C253.996 19.416 255.484 19.768 256.828 20.472C258.172 21.176 259.324 22.12 260.284 23.304C261.276 24.488 262.028 25.88 262.54 27.48C263.084 29.08 263.356 30.76 263.356 32.52C263.356 34.344 263.052 36.04 262.444 37.608C261.868 39.176 261.052 40.552 259.996 41.736C258.94 42.888 257.692 43.8 256.252 44.472C254.812 45.144 253.26 45.48 251.596 45.48ZM249.82 40.008C250.844 40.008 251.788 39.816 252.652 39.432C253.516 39.016 254.252 38.472 254.86 37.8C255.468 37.128 255.932 36.344 256.252 35.448C256.604 34.552 256.78 33.592 256.78 32.568C256.78 31.544 256.62 30.568 256.3 29.64C255.98 28.712 255.516 27.896 254.908 27.192C254.332 26.488 253.644 25.928 252.844 25.512C252.044 25.096 251.164 24.888 250.204 24.888C248.764 24.888 247.468 25.368 246.316 26.328C245.196 27.256 244.332 28.408 243.724 29.784V35.784C243.948 36.424 244.268 37 244.684 37.512C245.132 38.024 245.628 38.472 246.172 38.856C246.716 39.208 247.308 39.496 247.948 39.72C248.588 39.912 249.212 40.008 249.82 40.008ZM277.805 27.72C277.805 25.64 278.173 23.592 278.909 21.576C279.677 19.528 280.781 17.704 282.221 16.104C283.661 14.504 285.421 13.208 287.501 12.216C289.581 11.224 291.949 10.728 294.605 10.728C297.741 10.728 300.445 11.416 302.717 12.792C305.021 14.168 306.733 15.96 307.853 18.168L302.765 21.672C302.317 20.712 301.773 19.912 301.133 19.272C300.493 18.6 299.805 18.072 299.069 17.688C298.333 17.304 297.565 17.032 296.765 16.872C295.965 16.68 295.181 16.584 294.413 16.584C292.749 16.584 291.293 16.92 290.045 17.592C288.829 18.264 287.805 19.144 286.973 20.232C286.173 21.288 285.565 22.504 285.149 23.88C284.733 25.224 284.525 26.568 284.525 27.912C284.525 29.416 284.765 30.872 285.245 32.28C285.725 33.656 286.397 34.872 287.261 35.928C288.157 36.984 289.213 37.832 290.429 38.472C291.677 39.112 293.037 39.432 294.509 39.432C295.277 39.432 296.077 39.336 296.909 39.144C297.741 38.952 298.525 38.648 299.261 38.232C300.029 37.816 300.733 37.288 301.373 36.648C302.013 35.976 302.525 35.176 302.909 34.248L308.333 37.368C307.789 38.648 307.005 39.784 305.981 40.776C304.989 41.736 303.853 42.552 302.573 43.224C301.325 43.896 299.981 44.408 298.541 44.76C297.101 45.112 295.693 45.288 294.317 45.288C291.885 45.288 289.661 44.776 287.645 43.752C285.629 42.728 283.885 41.4 282.413 39.768C280.973 38.104 279.837 36.232 279.005 34.152C278.205 32.04 277.805 29.896 277.805 27.72ZM323.767 45.48C321.719 45.48 319.879 45.128 318.247 44.424C316.615 43.72 315.223 42.776 314.071 41.592C312.951 40.376 312.087 38.984 311.479 37.416C310.871 35.848 310.567 34.2 310.567 32.472C310.567 30.712 310.871 29.048 311.479 27.48C312.087 25.912 312.951 24.536 314.071 23.352C315.223 22.136 316.615 21.176 318.247 20.472C319.879 19.768 321.719 19.416 323.767 19.416C325.815 19.416 327.639 19.768 329.239 20.472C330.871 21.176 332.247 22.136 333.367 23.352C334.519 24.536 335.399 25.912 336.007 27.48C336.615 29.048 336.919 30.712 336.919 32.472C336.919 34.2 336.615 35.848 336.007 37.416C335.399 38.984 334.535 40.376 333.415 41.592C332.295 42.776 330.919 43.72 329.287 44.424C327.655 45.128 325.815 45.48 323.767 45.48ZM317.191 32.472C317.191 33.592 317.351 34.616 317.671 35.544C318.023 36.44 318.487 37.224 319.063 37.896C319.671 38.568 320.375 39.096 321.175 39.48C321.975 39.832 322.839 40.008 323.767 40.008C324.695 40.008 325.559 39.832 326.359 39.48C327.159 39.096 327.847 38.568 328.423 37.896C329.031 37.224 329.495 36.424 329.815 35.496C330.167 34.568 330.343 33.544 330.343 32.424C330.343 31.336 330.167 30.328 329.815 29.4C329.495 28.472 329.031 27.672 328.423 27C327.847 26.328 327.159 25.816 326.359 25.464C325.559 25.08 324.695 24.888 323.767 24.888C322.839 24.888 321.975 25.08 321.175 25.464C320.375 25.848 319.671 26.376 319.063 27.048C318.487 27.72 318.023 28.52 317.671 29.448C317.351 30.376 317.191 31.384 317.191 32.472ZM356.236 25.416C354.284 25.448 352.54 25.832 351.004 26.568C349.468 27.272 348.364 28.344 347.692 29.784V45H341.26V19.848H347.164V25.224C347.612 24.36 348.14 23.592 348.748 22.92C349.356 22.216 350.012 21.608 350.716 21.096C351.42 20.584 352.124 20.2 352.828 19.944C353.564 19.656 354.268 19.512 354.94 19.512C355.292 19.512 355.548 19.512 355.708 19.512C355.9 19.512 356.076 19.528 356.236 19.56V25.416ZM374.895 45.48C372.911 45.48 371.183 45.048 369.711 44.184C368.239 43.288 367.087 42.088 366.255 40.584V55.224H359.823V19.848H365.439V24.168C366.367 22.696 367.567 21.544 369.039 20.712C370.511 19.848 372.207 19.416 374.127 19.416C375.823 19.416 377.391 19.768 378.831 20.472C380.271 21.144 381.503 22.072 382.527 23.256C383.583 24.408 384.399 25.784 384.975 27.384C385.583 28.952 385.887 30.616 385.887 32.376C385.887 34.2 385.615 35.912 385.071 37.512C384.527 39.112 383.759 40.504 382.767 41.688C381.807 42.872 380.655 43.8 379.311 44.472C377.967 45.144 376.495 45.48 374.895 45.48ZM372.735 40.008C373.695 40.008 374.575 39.8 375.375 39.384C376.207 38.968 376.911 38.408 377.487 37.704C378.063 37 378.511 36.184 378.831 35.256C379.151 34.328 379.311 33.368 379.311 32.376C379.311 31.32 379.135 30.344 378.783 29.448C378.431 28.52 377.935 27.72 377.295 27.048C376.687 26.376 375.951 25.848 375.087 25.464C374.255 25.08 373.343 24.888 372.351 24.888C371.743 24.888 371.119 25 370.479 25.224C369.839 25.416 369.247 25.704 368.703 26.088C368.159 26.472 367.663 26.92 367.215 27.432C366.799 27.944 366.479 28.504 366.255 29.112V35.016C366.831 36.456 367.711 37.656 368.895 38.616C370.079 39.544 371.359 40.008 372.735 40.008Z" fill="white"/>
</svg>
